<?xml version="1.0" encoding="UTF-8" standalone="no"?>
<!-- Created with Inkscape (http://www.inkscape.org/) -->

<svg
   xmlns:dc="http://purl.org/dc/elements/1.1/"
   xmlns:cc="http://creativecommons.org/ns#"
   xmlns:rdf="http://www.w3.org/1999/02/22-rdf-syntax-ns#"
   xmlns:svg="http://www.w3.org/2000/svg"
   xmlns="http://www.w3.org/2000/svg"
   xmlns:sodipodi="http://sodipodi.sourceforge.net/DTD/sodipodi-0.dtd"
   xmlns:inkscape="http://www.inkscape.org/namespaces/inkscape"
   width="1530"
   height="740"
   viewBox="0 0 1529.9999 740.00004"
   id="svg2"
   version="1.1"
   inkscape:version="0.91 r13725"
   sodipodi:docname="rhub2.svg"
   inkscape:export-filename="/Users/gaborcsardi/rhub2.png"
   inkscape:export-xdpi="90"
   inkscape:export-ydpi="90">
  <defs
     id="defs4" />
  <sodipodi:namedview
     id="base"
     pagecolor="#ffffff"
     bordercolor="#666666"
     borderopacity="1.0"
     inkscape:pageopacity="0.0"
     inkscape:pageshadow="2"
     inkscape:zoom="0.28391294"
     inkscape:cx="202.97861"
     inkscape:cy="367.26313"
     inkscape:document-units="px"
     inkscape:current-layer="g6996"
     showgrid="false"
     fit-margin-top="1"
     fit-margin-left="1"
     fit-margin-right="1"
     fit-margin-bottom="1"
     units="px"
     inkscape:window-width="1676"
     inkscape:window-height="1005"
     inkscape:window-x="4"
     inkscape:window-y="1"
     inkscape:window-maximized="1" />
  <metadata
     id="metadata7">
    <rdf:RDF>
      <cc:Work
         rdf:about="">
        <dc:format>image/svg+xml</dc:format>
        <dc:type
           rdf:resource="http://purl.org/dc/dcmitype/StillImage" />
        <dc:title></dc:title>
      </cc:Work>
    </rdf:RDF>
  </metadata>
  <g
     inkscape:label="Layer 1"
     inkscape:groupmode="layer"
     id="layer1"
     transform="translate(-91.868273,591.2556)">
    <g
       id="g6996"
       transform="matrix(1.0537553,0,0,1.0537553,-35.0463,34.485453)">
      <g
         id="g4152"
         transform="translate(3.5602733,-2.5972569)">
        <path
           sodipodi:nodetypes="cccccccccccccc"
           style="fill:none;fill-rule:evenodd;stroke:#b4b4b4;stroke-width:1.89797401;stroke-linecap:butt;stroke-linejoin:miter;stroke-miterlimit:4;stroke-dasharray:none;stroke-opacity:0.38039216"
           d="M 150.9131,-236.0278 731.88409,-393.73448 616.91084,34.617179 188.5592,-396.78686 308.61978,-508.7077 l 152.61934,-43.75087 0,629.80918 L 304.54991,28.512408 194.66401,-83.408453 616.91084,-509.72516 729.84919,-392.71699 305.56741,28.512408 C 493.89047,-19.134274 577.67812,-37.86112 730.86661,-82.390974 Z"
           id="path6088"
           inkscape:connector-curvature="0" />
        <circle
           style="fill:#1f52a4;fill-opacity:1;stroke:none;stroke-opacity:1"
           id="path4366"
           r="37.022816"
           cy="-393.8512"
           cx="192.78979" />
        <circle
           cx="158.41196"
           cy="-238.79092"
           r="37.022816"
           id="circle4368"
           style="fill:#9ba0cf;fill-opacity:1;stroke:none;stroke-opacity:1" />
        <circle
           style="fill:#9ba0cf;fill-opacity:1;stroke:none;stroke-opacity:1"
           id="circle4370"
           r="37.022816"
           cy="-503.14575"
           cx="308.80515" />
        <circle
           cx="730.27399"
           cy="-395.59344"
           r="37.022816"
           id="circle4372"
           style="fill:#9ba0cf;fill-opacity:1;stroke:none;stroke-opacity:1" />
        <circle
           style="fill:#9ba0cf;fill-opacity:1;stroke:none;stroke-opacity:1"
           id="circle4374"
           r="37.022816"
           cy="-84.601814"
           cx="732.01624" />
        <circle
           cx="463.70972"
           cy="70.458473"
           r="37.022816"
           id="circle4376"
           style="fill:#9ba0cf;fill-opacity:1;stroke:none;stroke-opacity:1" />
        <circle
           cx="461.09631"
           cy="-550.65375"
           r="37.022816"
           id="circle4378"
           style="fill:#1f52a4;fill-opacity:1;stroke:none;stroke-opacity:1" />
        <circle
           style="fill:#1f52a4;fill-opacity:1;stroke:none;stroke-opacity:1"
           id="circle4380"
           r="37.022816"
           cy="-505.04376"
           cx="616.15656" />
        <circle
           style="fill:#1f52a4;fill-opacity:1;stroke:none;stroke-opacity:1"
           id="circle4384"
           r="37.022816"
           cy="24.848438"
           cx="612.20496" />
        <circle
           cx="310.54739"
           cy="22.950464"
           r="37.022816"
           id="circle4386"
           style="fill:#1f52a4;fill-opacity:1;stroke:none;stroke-opacity:1" />
        <circle
           style="fill:#1f52a4;fill-opacity:1;stroke:none;stroke-opacity:1"
           id="circle4388"
           r="37.022816"
           cy="-83.730736"
           cx="196.27429" />
        <path
           inkscape:connector-curvature="0"
           id="path4267"
           style="fill:#1f52a4"
           d="m 499.06556,-253.37059 c 23.79114,-5.59845 34.59724,-18.69946 36.76648,-44.57437 2.32261,-27.70363 -7.43522,-44.59651 -29.7622,-51.52498 -13.67165,-4.2426 -84.30962,-6.64634 -90.94564,-3.09489 -4.29081,2.29635 -4.35884,3.06129 -4.35884,48.98935 0,25.66103 0.54471,48.07681 1.21114,49.81268 1.04509,2.72339 6.31139,3.15193 38.40986,3.12499 24.19353,-0.0199 41.21244,-0.97571 48.6792,-2.73278 z m -160.1316,5.57569 0,-168.78542 85.29977,0.89976 c 76.99042,0.8121 87.10973,1.30294 103.87943,5.03898 45.62072,10.16347 71.09579,33.21179 79.25218,71.70264 3.67071,17.32254 3.67331,51.58277 0.007,68.89248 -6.03442,28.47656 -23.33282,51.77746 -47.89756,64.51808 -7.39193,3.83388 -10.92383,6.81767 -10.41103,8.7953 0.42699,1.64613 18.91433,28.58291 41.0833,59.8595 l 40.30731,56.866501 -43.45214,0.538734 c -23.89869,0.296649 -44.37124,0.180921 -45.49468,-0.256056 -1.12336,-0.437636 -18.62109,-24.698559 -38.88386,-53.913729 l -36.84204,-53.1185 -26.29647,0 c -22.13831,0 -26.48803,0.49882 -27.50764,3.15613 -0.66616,1.73591 -1.21114,25.97901 -1.21114,53.87353 l 0,50.717419 -35.91572,0 -35.91568,0 0,-168.785459 z" />
        <path
           d="m 646.69929,-200.28576 0,-44.07595 137.32204,0 0,44.07595 -137.32204,0 z"
           style="font-style:normal;font-variant:normal;font-weight:bold;font-stretch:normal;font-size:medium;line-height:125%;font-family:Nevis;-inkscape-font-specification:'Nevis Bold';letter-spacing:0px;word-spacing:0px;fill:#1f52a4;fill-opacity:1;stroke:none;stroke-width:1px;stroke-linecap:butt;stroke-linejoin:miter;stroke-opacity:1"
           id="path4158"
           inkscape:connector-curvature="0" />
        <g
           style="fill:#9f1f19;fill-opacity:1"
           id="g4797">
          <path
             inkscape:connector-curvature="0"
             id="path4160"
             style="font-style:normal;font-variant:normal;font-weight:bold;font-stretch:normal;font-size:medium;line-height:125%;font-family:Nevis;-inkscape-font-specification:'Nevis Bold';letter-spacing:0px;word-spacing:0px;fill:#9f1f19;fill-opacity:1;stroke:none;stroke-width:1px;stroke-linecap:butt;stroke-linejoin:miter;stroke-opacity:1"
             d="m 912.48391,-232.72517 0,149.725323 -62.01641,0 0,-332.230743 62.01641,0 0,130.67742 q 22.3702,-19.93384 53.15692,-19.93384 42.08257,0 64.23127,25.47102 22.1487,25.47103 22.1487,58.6941 l 0,137.322043 -62.01638,0 0,-121.817943 q 0,-22.14871 -11.07436,-34.33051 -11.07436,-12.18179 -33.44456,-12.84625 -19.26939,1.32892 -33.00159,19.26938 z" />
          <path
             inkscape:connector-curvature="0"
             id="path4162"
             style="font-style:normal;font-variant:normal;font-weight:bold;font-stretch:normal;font-size:medium;line-height:125%;font-family:Nevis;-inkscape-font-specification:'Nevis Bold';letter-spacing:0px;word-spacing:0px;fill:#9f1f19;fill-opacity:1;stroke:none;stroke-width:1px;stroke-linecap:butt;stroke-linejoin:miter;stroke-opacity:1"
             d="m 1228.5461,-161.62779 0,-143.08071 62.0164,0 0,221.708653 -62.0164,0 0,-20.155333 q -22.3702,19.933845 -53.1569,19.933845 -42.0826,0 -64.2313,-25.471025 -22.1487,-25.47102 -22.1487,-58.6941 l 0,-137.32204 62.0164,0 0,121.81794 q 0,22.14872 11.0744,34.33051 11.0743,12.1818 33.4445,12.84626 19.2694,-1.32893 33.0016,-25.914 z" />
          <path
             inkscape:connector-curvature="0"
             id="path4164"
             style="font-style:normal;font-variant:normal;font-weight:bold;font-stretch:normal;font-size:medium;line-height:125%;font-family:Nevis;-inkscape-font-specification:'Nevis Bold';letter-spacing:0px;word-spacing:0px;fill:#9f1f19;fill-opacity:1;stroke:none;stroke-width:1px;stroke-linecap:butt;stroke-linejoin:miter;stroke-opacity:1"
             d="m 1404.8499,-415.23059 0,128.68404 q 15.5041,-15.72559 48.7272,-17.94046 50.942,0 80.8428,33.22307 29.9008,33.22308 29.9008,77.52051 0,44.29743 -29.9008,77.52051 -29.9008,33.223073 -80.8428,33.223073 -23.9206,0 -48.7272,-17.718973 l 0,17.718973 -62.0164,0 0,-332.009263 62.0164,-0.22148 z m 0,241.42101 q 4.4297,33.22307 46.5123,39.86768 57.5867,-2.21487 59.8015,-64.23127 -6.6446,-50.94205 -59.8015,-55.15031 -42.0826,6.42313 -46.5123,43.63297 l 0,35.88093 z" />
        </g>
      </g>
    </g>
  </g>
</svg>
