<?xml version="1.0" encoding="UTF-8" standalone="no"?>
<!-- Created with Inkscape (http://www.inkscape.org/) -->

<svg
   xmlns:dc="http://purl.org/dc/elements/1.1/"
   xmlns:cc="http://creativecommons.org/ns#"
   xmlns:rdf="http://www.w3.org/1999/02/22-rdf-syntax-ns#"
   xmlns:svg="http://www.w3.org/2000/svg"
   xmlns="http://www.w3.org/2000/svg"
   xmlns:sodipodi="http://sodipodi.sourceforge.net/DTD/sodipodi-0.dtd"
   xmlns:inkscape="http://www.inkscape.org/namespaces/inkscape"
   width="740"
   height="740"
   viewBox="0 0 739.99995 740.00003"
   id="svg2"
   version="1.1"
   inkscape:version="0.91 r13725"
   sodipodi:docname="rc3.svg"
   inkscape:export-filename="/Users/gaborcsardi/rc3.png"
   inkscape:export-xdpi="90"
   inkscape:export-ydpi="90">
  <defs
     id="defs4" />
  <sodipodi:namedview
     id="base"
     pagecolor="#ffffff"
     bordercolor="#666666"
     borderopacity="1.0"
     inkscape:pageopacity="0.0"
     inkscape:pageshadow="2"
     inkscape:zoom="0.6664293"
     inkscape:cx="361.327"
     inkscape:cy="409.70463"
     inkscape:document-units="px"
     inkscape:current-layer="layer1"
     showgrid="false"
     fit-margin-top="1"
     fit-margin-left="1"
     fit-margin-right="1"
     fit-margin-bottom="1"
     units="px"
     inkscape:window-width="1676"
     inkscape:window-height="1005"
     inkscape:window-x="4"
     inkscape:window-y="1"
     inkscape:window-maximized="1" />
  <metadata
     id="metadata7">
    <rdf:RDF>
      <cc:Work
         rdf:about="">
        <dc:format>image/svg+xml</dc:format>
        <dc:type
           rdf:resource="http://purl.org/dc/dcmitype/StillImage" />
        <dc:title></dc:title>
      </cc:Work>
    </rdf:RDF>
  </metadata>
  <g
     inkscape:label="Layer 1"
     inkscape:groupmode="layer"
     id="layer1"
     transform="translate(-91.868212,591.25559)">
    <g
       id="g6996"
       transform="matrix(1.0537553,0,0,1.0537553,-26.850409,31.748568)">
      <path
         inkscape:connector-curvature="0"
         id="path6088"
         d="M 150.9131,-236.0278 731.88409,-393.73448 616.91084,34.617179 188.5592,-396.78686 308.61978,-508.7077 l 152.61934,-43.75087 0,629.80918 L 304.54991,28.512408 194.66401,-83.408453 616.91084,-509.72516 729.84919,-392.71699 305.56741,28.512408 772.58257,-239.08018 730.86661,-82.390974 Z"
         style="fill:none;fill-rule:evenodd;stroke:#e6e6e6;stroke-width:5.83885765px;stroke-linecap:butt;stroke-linejoin:miter;stroke-opacity:1" />
      <circle
         cx="192.78979"
         cy="-393.8512"
         r="37.022816"
         id="path4366"
         style="fill:#1f52a4;fill-opacity:1;stroke:none;stroke-opacity:1" />
      <circle
         style="fill:#9ba0cf;fill-opacity:1;stroke:none;stroke-opacity:1"
         id="circle4368"
         r="37.022816"
         cy="-238.79092"
         cx="158.41196" />
      <circle
         cx="308.80515"
         cy="-503.14575"
         r="37.022816"
         id="circle4370"
         style="fill:#9ba0cf;fill-opacity:1;stroke:none;stroke-opacity:1" />
      <circle
         style="fill:#9ba0cf;fill-opacity:1;stroke:none;stroke-opacity:1"
         id="circle4372"
         r="37.022816"
         cy="-395.59344"
         cx="730.27399" />
      <circle
         cx="732.01624"
         cy="-84.601814"
         r="37.022816"
         id="circle4374"
         style="fill:#9ba0cf;fill-opacity:1;stroke:none;stroke-opacity:1" />
      <circle
         style="fill:#9ba0cf;fill-opacity:1;stroke:none;stroke-opacity:1"
         id="circle4376"
         r="37.022816"
         cy="70.458473"
         cx="463.70972" />
      <circle
         style="fill:#1f52a4;fill-opacity:1;stroke:none;stroke-opacity:1"
         id="circle4378"
         r="37.022816"
         cy="-550.65375"
         cx="461.09631" />
      <circle
         cx="616.15656"
         cy="-505.04376"
         r="37.022816"
         id="circle4380"
         style="fill:#1f52a4;fill-opacity:1;stroke:none;stroke-opacity:1" />
      <circle
         style="fill:#1f52a4;fill-opacity:1;stroke:none;stroke-opacity:1"
         id="circle4382"
         r="37.022816"
         cy="-239.66208"
         cx="769.16315" />
      <circle
         cx="612.20496"
         cy="24.848438"
         r="37.022816"
         id="circle4384"
         style="fill:#1f52a4;fill-opacity:1;stroke:none;stroke-opacity:1" />
      <circle
         style="fill:#1f52a4;fill-opacity:1;stroke:none;stroke-opacity:1"
         id="circle4386"
         r="37.022816"
         cy="22.950464"
         cx="310.54739" />
      <circle
         cx="196.27429"
         cy="-83.730736"
         r="37.022816"
         id="circle4388"
         style="fill:#1f52a4;fill-opacity:1;stroke:none;stroke-opacity:1" />
      <g
         id="g4151"
         transform="translate(0,0.19420506)">
        <path
           inkscape:connector-curvature="0"
           id="path4267"
           style="fill:#1f52a4"
           d="m 482.41585,-333.80221 c 16.58609,-3.90298 24.11961,-13.0364 25.6319,-31.0752 1.61922,-19.3137 -5.18349,-31.09064 -20.74884,-35.92085 -9.53124,-2.95774 -58.77679,-4.63352 -63.40312,-2.15761 -2.99135,1.60091 -3.03878,2.13419 -3.03878,34.15312 0,17.88969 0.37975,33.51694 0.84435,34.72711 0.72859,1.89862 4.40001,2.19738 26.77759,2.1786 16.86662,-0.0139 28.73142,-0.68022 33.9369,-1.90517 z m -111.63639,3.88712 0,-117.66944 59.46708,0.62727 c 53.67418,0.56616 60.7289,0.90835 72.41996,3.51295 31.80467,7.0855 49.56472,23.15373 55.25098,49.98778 2.55905,12.07648 2.56086,35.96114 0.005,48.02867 -4.20692,19.85255 -16.26657,36.09687 -33.39198,44.97904 -5.15331,2.67281 -7.61559,4.75297 -7.25809,6.13168 0.29768,1.14761 13.1862,19.92669 28.64139,41.73129 l 28.1004,39.64471 -30.29283,0.37558 c -16.66107,0.20681 -30.93359,0.12613 -31.7168,-0.17851 -0.78316,-0.3051 -12.98177,-17.2187 -27.10804,-37.58617 l -25.68458,-37.03178 -18.33269,0 c -15.43381,0 -18.46624,0.34776 -19.17706,2.20031 -0.46442,1.2102 -0.84435,18.11137 -0.84435,37.55815 l 0,35.35785 -25.03879,0 -25.03876,0 0,-117.66946 z" />
        <text
           xml:space="preserve"
           style="font-style:normal;font-variant:normal;font-weight:bold;font-stretch:normal;font-size:219.01815796px;line-height:125%;font-family:Nevis;-inkscape-font-specification:'Nevis Bold';letter-spacing:0px;word-spacing:0px;fill:#9f1f19;fill-opacity:1;stroke:none;stroke-width:1px;stroke-linecap:butt;stroke-linejoin:miter;stroke-opacity:1"
           x="289.53275"
           y="-29.334154"
           id="text6090"
           sodipodi:linespacing="125%"><tspan
             sodipodi:role="line"
             id="tspan6092"
             x="289.53275"
             y="-29.334154">hub</tspan></text>
      </g>
    </g>
  </g>
</svg>
